# This file uses centimeters as units for non-parametric coordinates.

mtllib pants_1_4.mtl
g tweakSet1
v 0.583369 -0.047848 0.105161
v 0.640205 -0.000000 0.105161
v 0.583369 0.047848 0.105161
v 0.511286 0.047848 -0.141027
v 0.579539 -0.000000 -0.187985
v 0.511286 -0.047848 -0.141027
v 0.104118 0.047848 0.327616
v 0.064876 0.047848 -0.141027
v 0.064876 -0.047848 -0.141027
v 0.055972 -0.047848 0.357149
v 0.055972 -0.000000 0.409667
v 0.950909 -0.020564 1.841479
v 0.592377 -0.020564 1.841479
v 0.549629 0.000000 1.841479
v 0.993657 -0.000000 1.841479
v 0.585302 0.018883 1.786400
v 0.957984 0.018883 1.786400
v 0.000000 0.029038 0.334728
v 0.000000 0.007214 0.409667
v 0.000000 -0.043934 0.350394
v 0.000000 -0.046389 -0.141027
v 0.000000 0.040833 -0.141027
v 0.478261 0.029533 -0.147685
v 0.534756 0.000000 -0.176482
v 0.084127 0.029880 -0.145830
v 0.478261 -0.029533 -0.147685
v 0.082821 -0.030382 -0.145841
v 0.000000 0.036572 -0.141221
v 0.000000 -0.000751 -0.142048
v 0.478261 0.029533 -0.129022
v 0.534756 -0.000000 -0.129022
v 0.064876 -0.000000 -0.129022
v 0.084127 0.029880 -0.129022
v 0.478261 -0.029533 -0.129022
v 0.082821 -0.030382 -0.129022
v 0.000000 0.004582 -0.129022
v 0.000000 0.036572 -0.129022
v 0.000000 -0.000751 -0.129022
v -0.583369 -0.047848 0.105161
v -0.640205 -0.000000 0.105161
v -0.583369 0.047848 0.105161
v -0.511286 0.047848 -0.141027
v -0.579539 -0.000000 -0.187985
v -0.511286 -0.047848 -0.141027
v -0.104118 0.047848 0.327616
v -0.064876 0.047848 -0.141027
v -0.064876 -0.047848 -0.141027
v -0.055972 -0.047848 0.357149
v -0.055972 -0.000000 0.409667
v -0.950909 -0.020564 1.841479
v -0.592377 -0.020564 1.841479
v -0.549629 0.000000 1.841479
v -0.993657 -0.000000 1.841479
v -0.585302 0.018883 1.786400
v -0.957984 0.018883 1.786400
v -0.478261 0.029533 -0.147685
v -0.534756 0.000000 -0.176482
v -0.084127 0.029880 -0.145830
v -0.478261 -0.029533 -0.147685
v -0.082821 -0.030382 -0.145841
v -0.478261 0.029533 -0.129022
v -0.534756 -0.000000 -0.129022
v -0.064876 -0.000000 -0.129022
v -0.084127 0.029880 -0.129022
v -0.478261 -0.029533 -0.129022
v -0.082821 -0.030382 -0.129022
vt 0.375000 0.000000
vt 0.486007 0.000000
vt 0.486007 0.125000
vt 0.375000 0.125000
vt 0.486007 0.250000
vt 0.375000 0.250000
vt 0.375000 0.250000
vt 0.486007 0.250000
vt 0.486007 0.500000
vt 0.375000 0.500000
vt 0.486007 0.625000
vt 0.375000 0.625000
vt 0.486007 0.750000
vt 0.375000 0.750000
vt 0.486007 1.000000
vt 0.375000 1.000000
vt 0.125000 0.000000
vt 0.375000 0.000000
vt 0.375000 0.125000
vt 0.125000 0.125000
vt 0.125000 0.250000
vt 0.486007 0.125000
vt 0.486007 0.000000
vt 0.491094 0.250000
vt 0.495636 0.125000
vt 0.495487 1.000000
vt 0.495487 0.000000
vt 0.494314 0.750000
vt 0.494314 0.625000
vt 0.494314 0.500000
vt 0.375000 0.500000
vt 0.375000 0.625000
vt 0.486007 0.500000
vt 0.375000 0.750000
vt 0.486007 0.750000
vt 0.494314 0.500000
vt 0.494314 0.750000
vt 0.375000 0.500000
vt 0.375000 0.625000
vt 0.486007 0.500000
vt 0.375000 0.750000
vt 0.486007 0.750000
vt 0.494314 0.500000
vt 0.494314 0.750000
vt 0.375000 0.000000
vt 0.375000 0.125000
vt 0.486007 0.125000
vt 0.486007 0.000000
vt 0.375000 0.250000
vt 0.486007 0.250000
vt 0.375000 0.250000
vt 0.375000 0.500000
vt 0.486007 0.500000
vt 0.486007 0.250000
vt 0.375000 0.500000
vt 0.375000 0.625000
vt 0.486007 0.625000
vt 0.486007 0.500000
vt 0.375000 0.750000
vt 0.486007 0.750000
vt 0.375000 0.750000
vt 0.375000 1.000000
vt 0.486007 1.000000
vt 0.486007 0.750000
vt 0.125000 0.000000
vt 0.125000 0.125000
vt 0.375000 0.125000
vt 0.375000 0.000000
vt 0.125000 0.250000
vt 0.494314 0.500000
vt 0.491094 0.250000
vt 0.494314 0.625000
vt 0.494314 0.500000
vt 0.494314 0.750000
vt 0.495487 1.000000
vt 0.494314 0.750000
vt 0.486007 0.125000
vt 0.495636 0.125000
vt 0.495487 0.000000
vt 0.486007 0.000000
vt 0.375000 0.625000
vt 0.375000 0.625000
vt 0.375000 0.500000
vt 0.486007 0.500000
vt 0.375000 0.750000
vt 0.486007 0.750000
vt 0.494314 0.500000
vt 0.494314 0.750000
vn 0.000000 0.000000 1.000000
vn 0.000000 0.000000 1.000000
vn 0.000000 0.000000 1.000000
vn 0.000000 0.000000 1.000000
vn 0.000000 0.945952 0.324307
vn 0.000000 0.945952 0.324307
vn 0.000000 0.945952 0.324307
vn 0.000000 0.945952 0.324307
vn 0.000000 1.000000 -0.000000
vn 0.000000 1.000000 -0.000000
vn 0.000000 1.000000 -0.000000
vn 0.000000 1.000000 -0.000000
vn -0.000000 0.000004 -1.000000
vn -0.000000 0.000004 -1.000000
vn -0.000000 0.000004 -1.000000
vn -0.000000 0.000004 -1.000000
vn -0.000000 -0.000004 -1.000000
vn -0.000000 -0.000004 -1.000000
vn -0.000000 -0.000004 -1.000000
vn -0.000000 -0.000004 -1.000000
vn 0.000000 -1.000000 0.000000
vn 0.000000 -1.000000 0.000000
vn 0.000000 -1.000000 0.000000
vn 0.000000 -1.000000 0.000000
vn 0.568004 -0.811065 -0.139805
vn 0.568004 -0.811065 -0.139805
vn 0.568004 -0.811065 -0.139805
vn 0.568004 -0.811065 -0.139805
vn 0.568004 0.811065 -0.139805
vn 0.568004 0.811065 -0.139805
vn 0.568004 0.811065 -0.139805
vn 0.568004 0.811065 -0.139805
vn -0.150274 0.988470 0.018590
vn -0.150274 0.988469 0.018590
vn -0.150274 0.988469 0.018590
vn -0.150274 0.988470 0.018590
vn -0.000000 -0.000001 -1.000000
vn -0.000000 -0.000001 -1.000000
vn -0.000000 -0.000001 -1.000000
vn -0.000000 -0.000001 -1.000000
vn 0.000000 0.000002 -1.000000
vn 0.000000 0.000002 -1.000000
vn 0.000000 0.000002 -1.000000
vn 0.000000 0.000002 -1.000000
vn -0.044539 -0.999005 0.002078
vn -0.044539 -0.999005 0.002078
vn -0.044539 -0.999005 0.002078
vn -0.044539 -0.999005 0.002078
vn -0.113687 -0.743795 0.658669
vn -0.113687 -0.743795 0.658669
vn -0.113687 -0.743795 0.658669
vn -0.113687 -0.743795 0.658669
vn -0.049091 0.918422 0.392545
vn -0.049091 0.918422 0.392544
vn -0.049091 0.918422 0.392544
vn -0.049091 0.918422 0.392544
vn 0.004462 -0.999867 0.015689
vn 0.004462 -0.999867 0.015689
vn 0.004462 -0.999867 0.015689
vn 0.004462 -0.999867 0.015689
vn -0.716976 -0.647074 0.259310
vn -0.716976 -0.647074 0.259310
vn -0.716976 -0.647074 0.259310
vn -0.716976 -0.647074 0.259310
vn 0.562774 -0.819204 -0.110407
vn 0.562774 -0.819205 -0.110407
vn 0.562774 -0.819204 -0.110407
vn 0.562774 -0.819204 -0.110407
vn -0.443333 0.882258 0.158353
vn -0.443333 0.882258 0.158353
vn -0.443333 0.882259 0.158353
vn -0.443333 0.882259 0.158353
vn 0.004497 0.999842 0.017221
vn 0.004497 0.999842 0.017221
vn 0.004497 0.999842 0.017221
vn 0.004497 0.999842 0.017221
vn 0.629068 0.766820 -0.127516
vn 0.629068 0.766820 -0.127516
vn 0.629068 0.766820 -0.127516
vn 0.629068 0.766820 -0.127516
vn -0.176172 0.528798 -0.830263
vn -0.176172 0.528798 -0.830263
vn -0.176172 0.528798 -0.830263
vn -0.176172 0.528798 -0.830263
vn -0.001980 0.301902 -0.953337
vn -0.001980 0.301902 -0.953337
vn -0.001980 0.301902 -0.953337
vn -0.001980 0.301902 -0.953337
vn -0.176172 -0.528798 -0.830263
vn -0.176172 -0.528798 -0.830263
vn -0.176172 -0.528798 -0.830263
vn -0.176172 -0.528798 -0.830263
vn -0.001777 -0.305992 -0.952033
vn -0.001777 -0.305992 -0.952032
vn -0.001777 -0.305992 -0.952033
vn -0.001777 -0.305992 -0.952032
vn -0.030750 0.193811 -0.980557
vn -0.030750 0.193811 -0.980557
vn -0.030750 0.193811 -0.980557
vn -0.030750 0.193811 -0.980557
vn -0.042417 -0.080028 -0.995890
vn -0.042417 -0.080028 -0.995890
vn -0.042417 -0.080028 -0.995890
vn -0.042417 -0.080028 -0.995890
vn -0.463270 -0.886217 0.000000
vn -0.463270 -0.886217 0.000000
vn -0.463270 -0.886217 0.000000
vn -0.463270 -0.886217 0.000000
vn -0.000880 -1.000000 0.000000
vn -0.000880 -1.000000 0.000000
vn -0.000880 -1.000000 0.000000
vn -0.000880 -1.000000 0.000000
vn -0.463270 0.886217 0.000000
vn -0.463270 0.886217 0.000000
vn -0.463270 0.886217 0.000000
vn -0.463270 0.886217 0.000000
vn -0.002147 0.999998 0.000000
vn -0.002147 0.999998 0.000000
vn -0.002147 0.999998 0.000000
vn -0.002147 0.999998 0.000000
vn -0.079296 -0.996851 0.000000
vn -0.079296 -0.996851 0.000000
vn -0.079296 -0.996851 0.000000
vn -0.079296 -0.996851 0.000000
vn 0.336862 0.941554 0.000000
vn 0.336862 0.941554 0.000000
vn 0.336862 0.941554 0.000000
vn 0.336862 0.941554 0.000000
vn 0.000000 0.000000 1.000000
vn 0.000000 0.000000 1.000000
vn 0.000000 0.000000 1.000000
vn 0.000000 0.000000 1.000000
vn 0.000000 0.945952 0.324307
vn 0.000000 0.945952 0.324307
vn 0.000000 0.945952 0.324307
vn 0.000000 0.945952 0.324307
vn 0.000000 1.000000 0.000000
vn 0.000000 1.000000 0.000000
vn 0.000000 1.000000 0.000000
vn 0.000000 1.000000 0.000000
vn 0.000000 0.000004 -1.000000
vn 0.000000 0.000004 -1.000000
vn 0.000000 0.000004 -1.000000
vn 0.000000 0.000004 -1.000000
vn 0.000000 -0.000004 -1.000000
vn 0.000000 -0.000004 -1.000000
vn 0.000000 -0.000004 -1.000000
vn 0.000000 -0.000004 -1.000000
vn 0.000000 -1.000000 -0.000000
vn 0.000000 -1.000000 -0.000000
vn 0.000000 -1.000000 -0.000000
vn 0.000000 -1.000000 -0.000000
vn -0.568004 -0.811065 -0.139805
vn -0.568004 -0.811065 -0.139805
vn -0.568004 -0.811065 -0.139805
vn -0.568004 -0.811065 -0.139805
vn -0.568004 0.811065 -0.139805
vn -0.568004 0.811065 -0.139805
vn -0.568004 0.811065 -0.139805
vn -0.568004 0.811065 -0.139805
vn 0.150274 0.988470 0.018590
vn 0.150274 0.988469 0.018590
vn 0.150274 0.988469 0.018590
vn 0.150274 0.988469 0.018590
vn 0.000000 -0.000001 -1.000000
vn 0.000000 -0.000001 -1.000000
vn 0.000000 -0.000001 -1.000000
vn 0.000000 -0.000001 -1.000000
vn 0.000000 0.000002 -1.000000
vn 0.000000 0.000002 -1.000000
vn 0.000000 0.000002 -1.000000
vn 0.000000 0.000002 -1.000000
vn 0.044539 -0.999005 0.002078
vn 0.044539 -0.999005 0.002078
vn 0.044539 -0.999005 0.002078
vn 0.044539 -0.999005 0.002078
vn 0.113687 -0.743795 0.658669
vn 0.113687 -0.743795 0.658669
vn 0.113687 -0.743795 0.658669
vn 0.113687 -0.743795 0.658669
vn 0.049091 0.918422 0.392545
vn 0.049091 0.918422 0.392544
vn 0.049091 0.918422 0.392544
vn 0.049091 0.918422 0.392544
vn -0.004462 -0.999867 0.015689
vn -0.004462 -0.999867 0.015689
vn -0.004462 -0.999867 0.015689
vn -0.004462 -0.999867 0.015689
vn 0.716976 -0.647074 0.259310
vn 0.716976 -0.647074 0.259310
vn 0.716976 -0.647074 0.259310
vn 0.716976 -0.647074 0.259310
vn -0.562774 -0.819204 -0.110407
vn -0.562774 -0.819204 -0.110407
vn -0.562774 -0.819204 -0.110407
vn -0.562774 -0.819205 -0.110407
vn 0.443333 0.882258 0.158353
vn 0.443333 0.882258 0.158353
vn 0.443333 0.882258 0.158353
vn 0.443333 0.882258 0.158353
vn -0.004497 0.999842 0.017221
vn -0.004497 0.999842 0.017221
vn -0.004497 0.999842 0.017221
vn -0.004497 0.999842 0.017221
vn -0.629068 0.766820 -0.127516
vn -0.629068 0.766820 -0.127516
vn -0.629068 0.766820 -0.127516
vn -0.629068 0.766820 -0.127516
vn 0.176172 0.528798 -0.830263
vn 0.176172 0.528798 -0.830263
vn 0.176172 0.528798 -0.830263
vn 0.176172 0.528798 -0.830263
vn 0.001980 0.301902 -0.953337
vn 0.001980 0.301902 -0.953337
vn 0.001980 0.301902 -0.953337
vn 0.001980 0.301902 -0.953337
vn 0.176172 -0.528798 -0.830263
vn 0.176172 -0.528798 -0.830263
vn 0.176172 -0.528798 -0.830263
vn 0.176172 -0.528798 -0.830263
vn 0.001777 -0.305992 -0.952032
vn 0.001777 -0.305992 -0.952032
vn 0.001777 -0.305992 -0.952033
vn 0.001777 -0.305992 -0.952032
vn 0.030750 0.193811 -0.980557
vn 0.030750 0.193811 -0.980557
vn 0.030750 0.193811 -0.980557
vn 0.030750 0.193811 -0.980557
vn 0.042417 -0.080028 -0.995890
vn 0.042417 -0.080028 -0.995890
vn 0.042417 -0.080028 -0.995890
vn 0.042417 -0.080028 -0.995890
vn 0.463270 -0.886217 0.000000
vn 0.463270 -0.886217 0.000000
vn 0.463270 -0.886217 0.000000
vn 0.463270 -0.886217 0.000000
vn 0.000880 -1.000000 0.000000
vn 0.000880 -1.000000 0.000000
vn 0.000880 -1.000000 0.000000
vn 0.000880 -1.000000 0.000000
vn 0.463270 0.886217 0.000000
vn 0.463270 0.886217 0.000000
vn 0.463270 0.886217 0.000000
vn 0.463270 0.886217 0.000000
vn 0.002147 0.999998 0.000000
vn 0.002147 0.999998 0.000000
vn 0.002147 0.999998 0.000000
vn 0.002147 0.999998 0.000000
vn 0.079296 -0.996851 0.000000
vn 0.079296 -0.996851 0.000000
vn 0.079296 -0.996851 0.000000
vn 0.079296 -0.996851 0.000000
vn -0.336862 0.941554 0.000000
vn -0.336862 0.941554 0.000000
vn -0.336862 0.941554 0.000000
vn -0.336862 0.941554 0.000000
s off
g pCube1
usemtl initialShadingGroup
f 12/1/1 15/4/2 14/3/3 13/2/4
f 15/4/5 17/6/6 16/5/7 14/3/8
f 3/7/9 4/10/10 8/9/11 7/8/12
f 30/38/13 31/39/14 32/11/15 33/40/16
f 31/39/17 34/41/18 35/42/19 32/11/20
f 6/14/21 1/16/22 10/15/23 9/13/24
f 6/17/25 5/20/26 2/19/27 1/18/28
f 5/20/29 4/21/30 3/7/31 2/19/32
f 7/8/33 8/9/34 22/30/35 18/24/36
f 32/11/37 36/29/38 37/43/39 33/40/40
f 35/42/41 38/44/42 36/29/43 32/11/44
f 10/15/45 20/26/46 21/28/47 9/13/48
f 11/22/49 19/25/50 20/27/51 10/23/52
f 7/8/53 18/24/54 19/25/55 11/22/56
f 1/18/57 12/1/58 13/2/59 10/23/60
f 10/23/61 13/2/62 14/3/63 11/22/64
f 2/19/65 15/4/66 12/1/67 1/18/68
f 11/22/69 14/3/70 16/5/71 7/8/72
f 7/8/73 16/5/74 17/6/75 3/7/76
f 3/7/77 17/6/78 15/4/79 2/19/80
f 4/10/81 5/12/82 24/32/83 23/31/84
f 8/9/85 4/10/86 23/31/87 25/33/88
f 5/12/89 6/14/90 26/34/91 24/32/92
f 6/14/93 9/13/94 27/35/95 26/34/96
f 22/30/97 8/9/98 25/33/99 28/36/100
f 9/13/101 21/28/102 29/37/103 27/35/104
f 23/31/105 24/32/106 31/39/107 30/38/108
f 25/33/109 23/31/110 30/38/111 33/40/112
f 24/32/113 26/34/114 34/41/115 31/39/116
f 26/34/117 27/35/118 35/42/119 34/41/120
f 28/36/121 25/33/122 33/40/123 37/43/124
f 27/35/125 29/37/126 38/44/127 35/42/128
f 50/45/129 51/48/130 52/47/131 53/46/132
f 53/46/133 52/47/134 54/50/135 55/49/136
f 41/51/137 45/54/138 46/53/139 42/52/140
f 61/55/141 64/58/142 63/57/143 62/56/144
f 62/56/145 63/57/146 66/60/147 65/59/148
f 44/61/149 47/64/150 48/63/151 39/62/152
f 44/65/153 39/68/154 40/67/155 43/66/156
f 43/66/157 40/67/158 41/51/159 42/69/160
f 45/54/161 18/71/162 22/70/163 46/53/164
f 63/57/165 64/58/166 37/73/167 36/72/168
f 66/60/169 63/57/170 36/72/171 38/74/172
f 48/63/173 47/64/174 21/76/175 20/75/176
f 49/77/177 48/80/178 20/79/179 19/78/180
f 45/54/181 49/77/182 19/78/183 18/71/184
f 39/68/185 48/80/186 51/48/187 50/45/188
f 48/80/189 49/77/190 52/47/191 51/48/192
f 40/67/193 39/68/194 50/45/195 53/46/196
f 49/77/197 45/54/198 54/50/199 52/47/200
f 45/54/201 41/51/202 55/49/203 54/50/204
f 41/51/205 40/67/206 53/46/207 55/49/208
f 42/52/209 56/83/210 57/82/211 43/81/212
f 46/53/213 58/84/214 56/83/215 42/52/216
f 43/81/217 57/82/218 59/85/219 44/61/220
f 44/61/221 59/85/222 60/86/223 47/64/224
f 22/70/225 28/87/226 58/84/227 46/53/228
f 47/64/229 60/86/230 29/88/231 21/76/232
f 56/83/233 61/55/234 62/56/235 57/82/236
f 58/84/237 64/58/238 61/55/239 56/83/240
f 57/82/241 62/56/242 65/59/243 59/85/244
f 59/85/245 65/59/246 66/60/247 60/86/248
f 28/87/249 37/73/250 64/58/251 58/84/252
f 60/86/253 66/60/254 38/74/255 29/88/256
