# This file uses centimeters as units for non-parametric coordinates.

mtllib book_open.mtl
g default
v -0.000000 0.018455 1.853191
v 0.500000 0.018455 1.853191
v 0.000000 0.079045 1.853191
v 0.500000 0.582036 1.853191
v 0.000000 0.079045 -1.853191
v 0.500000 0.582036 -1.853191
v 0.000000 0.018455 -1.853191
v 0.500000 0.018455 -1.853191
v 2.918925 0.400200 -1.853191
v 2.918925 0.400200 1.853191
v 2.788786 0.556283 -1.853191
v 2.788786 0.556283 1.853191
v -0.500000 0.018455 1.853191
v -0.500000 0.582036 1.853191
v -0.500000 0.582036 -1.853191
v -0.500000 0.018455 -1.853191
v -2.918925 0.400200 -1.853191
v -2.918925 0.400200 1.853191
v -2.788786 0.556283 -1.853191
v -2.788786 0.556283 1.853191
v 1.149800 0.717600 -1.853191
v 1.197543 0.190729 -1.853191
v 1.197543 0.190729 1.853191
v 1.149800 0.717600 1.853191
v -1.149800 0.717600 -1.853191
v -1.149800 0.717600 1.853191
v -1.197543 0.190729 1.853191
v -1.197543 0.190729 -1.853191
v 0.216267 0.450799 -1.853191
v 0.251949 0.021177 -1.853191
v 0.251949 0.021177 1.853191
v 0.216267 0.450799 1.853191
v -0.216267 0.450799 -1.853191
v -0.216267 0.450799 1.853191
v -0.251949 0.021177 1.853191
v -0.251949 0.021177 -1.853191
v 1.181263 0.333201 -1.853191
v 0.500000 0.161222 -1.853191
v 0.239600 0.169863 -1.853191
v -0.239600 0.169863 -1.853191
v -0.500000 0.161222 -1.853191
v -1.181263 0.333201 -1.853191
v -2.869020 0.493999 -1.853191
v -2.869020 0.493999 1.853191
v -1.181263 0.333201 1.853191
v -0.500000 0.161222 1.853191
v -0.239600 0.169863 1.853191
v 0.239600 0.169863 1.853191
v 0.500000 0.161222 1.853191
v 1.181263 0.333201 1.853191
v 2.869020 0.493999 1.853191
v 2.869020 0.493999 -1.853191
v 2.110432 0.557851 -1.853191
v 2.201516 0.404501 -1.853191
v 2.250848 0.301901 -1.853191
v 2.250848 0.301901 1.853191
v 2.201516 0.404501 1.853191
v 2.110432 0.557851 1.853191
v -2.110432 0.557851 -1.853191
v -2.110432 0.557851 1.853191
v -2.201516 0.404501 1.853191
v -2.250848 0.301901 1.853191
v -2.250848 0.301901 -1.853191
v -2.201516 0.404501 -1.853191
v 0.000000 -0.101562 2.095379
v 0.000000 -0.101562 -2.095379
v 0.000000 -0.148039 2.095379
v 0.000000 -0.010200 2.095379
v 0.000000 0.008388 2.076790
v 0.547824 -0.010200 2.095379
v 0.546432 0.008388 2.076790
v 0.000000 0.008388 -2.076790
v 0.000000 -0.010200 -2.095379
v 0.547824 -0.010200 -2.095379
v 0.546432 0.008388 -2.076790
v 3.053089 0.366562 2.095379
v 3.034605 0.383199 2.076686
v 3.034605 0.383199 -2.076686
v 3.053089 0.366562 -2.095379
v 3.034606 0.275928 2.076685
v 3.053089 0.296746 2.095379
v 3.053089 0.296746 -2.095379
v 3.034606 0.275928 -2.076685
v -3.034606 0.275928 -2.076685
v -3.053089 0.296746 -2.095379
v -3.053089 0.296746 2.095379
v -3.034606 0.275928 2.076685
v -0.546432 0.008388 2.076790
v -0.547824 -0.010200 2.095379
v -0.546432 0.008388 -2.076790
v -0.547824 -0.010200 -2.095379
v -3.034605 0.383199 2.076686
v -3.053089 0.366562 2.095379
v -3.053089 0.366562 -2.095379
v -3.034605 0.383199 -2.076686
v 0.527843 -0.085581 -2.095379
v 0.546432 -0.101562 -2.076790
v 0.546432 -0.101562 2.076790
v 0.527843 -0.085581 2.095379
v -0.527843 -0.085581 2.095379
v -0.546432 -0.101562 2.076790
v -0.546432 -0.101562 -2.076790
v -0.527843 -0.085581 -2.095379
v 0.527843 -0.148039 -2.076790
v 0.527843 -0.129450 -2.095379
v 0.546432 -0.129450 -2.076790
v 0.000000 -0.129450 -2.095379
v 0.000000 -0.148039 -2.076790
v 0.546432 -0.129450 2.076790
v 0.527843 -0.148039 2.095379
v -0.527843 -0.148039 2.095379
v -0.546432 -0.129450 2.076790
v -0.527843 -0.148039 -2.076790
v -0.546432 -0.129450 -2.076790
v -0.527843 -0.129450 -2.095379
vt 0.500000 0.000000
vt 0.625000 0.000000
vt 0.500000 0.250000
vt 0.625000 0.250000
vt 0.500000 0.500000
vt 0.625000 0.500000
vt 0.500000 0.750000
vt 0.625000 0.750000
vt 0.500000 1.000000
vt 0.625000 1.000000
vt 0.875000 0.000000
vt 0.875000 0.250000
vt 0.625000 0.000000
vt 0.875000 0.000000
vt 0.875000 0.250000
vt 0.625000 0.250000
vt 0.500000 0.000000
vt 0.625000 0.000000
vt 0.625000 0.250000
vt 0.500000 0.250000
vt 0.625000 0.500000
vt 0.500000 0.500000
vt 0.625000 0.750000
vt 0.500000 0.750000
vt 0.625000 1.000000
vt 0.500000 1.000000
vt 0.625000 0.000000
vt 0.875000 0.000000
vt 0.875000 0.250000
vt 0.625000 0.250000
vt 0.875000 0.000000
vt 0.875000 0.250000
vt 0.875000 0.250000
vt 0.875000 0.000000
vt 0.625000 0.000000
vt 0.625000 0.250000
vt 0.875000 0.250000
vt 0.625000 0.250000
vt 0.625000 0.000000
vt 0.875000 0.000000
vt 0.577473 0.500000
vt 0.539581 0.750000
vt 0.539581 0.000000
vt 0.539581 1.000000
vt 0.577473 0.250000
vt 0.577473 0.500000
vt 0.577473 0.250000
vt 0.539581 1.000000
vt 0.539581 0.000000
vt 0.539581 0.750000
vt 0.875000 0.085252
vt 0.625000 0.686670
vt 0.875000 0.063330
vt 0.552695 0.663479
vt 0.552695 0.663479
vt 0.875000 0.063330
vt 0.625000 0.686670
vt 0.875000 0.085252
vt 0.875000 0.150238
vt 0.625000 0.150238
vt 0.625000 0.085252
vt 0.625000 0.063330
vt 0.552695 0.086521
vt 0.552695 0.086521
vt 0.625000 0.063330
vt 0.625000 0.085252
vt 0.625000 0.150238
vt 0.875000 0.150238
vt 0.875000 0.250000
vt 0.875000 0.124536
vt 0.875000 0.000000
vt 0.625000 0.000000
vt 0.625000 0.124536
vt 0.625000 0.250000
vt 0.875000 0.250000
vt 0.625000 0.250000
vt 0.625000 0.124536
vt 0.625000 0.000000
vt 0.875000 0.000000
vt 0.875000 0.124536
vt 0.375000 0.207734
vt 0.375000 0.251109
vt 0.373891 0.250000
vt 0.375000 0.207251
vt 0.419858 0.207254
vt 0.419744 0.251109
vt 0.625000 0.204729
vt 0.623486 0.251115
vt 0.126109 0.250000
vt 0.125000 0.207734
vt 0.125000 0.207254
vt 0.126109 0.250000
vt 0.375000 0.542266
vt 0.375000 0.498891
vt 0.419744 0.498891
vt 0.419858 0.542746
vt 0.623486 0.498885
vt 0.625000 0.545269
vt 0.626115 0.243510
vt 0.875000 0.204729
vt 0.873885 0.243510
vt 0.623487 0.998885
vt 0.625000 1.000000
vt 0.426727 1.000000
vt 0.419744 0.998891
vt 0.625000 0.041990
vt 0.626087 -0.000000
vt 0.873918 0.001082
vt 0.875000 0.041990
vt 0.625000 0.708009
vt 0.623487 0.751115
vt 0.419744 0.751109
vt 0.418222 0.713663
vt 0.126115 0.000000
vt 0.125000 0.041990
vt 0.125000 0.036337
vt 0.126109 0.000000
vt 0.373885 0.000000
vt 0.375000 0.041990
vt 0.373891 0.000000
vt 0.375000 0.036337
vt 0.373885 0.250000
vt 0.375000 0.204729
vt 0.125000 0.204729
vt 0.126115 0.250000
vt 0.419744 0.751109
vt 0.418222 0.750000
vt 0.419744 1.000000
vt 0.418222 1.000000
vt 0.419744 0.998891
vt 0.373891 0.000000
vt 0.375000 0.000000
vt 0.125000 0.000000
vt 0.126109 0.000000
vt 0.418222 0.751109
vt 0.375000 0.751109
vt 0.375000 0.750000
vt 0.125000 0.000000
vt 0.126109 0.000000
vt 0.126109 0.000000
vt 0.375000 0.000000
vt 0.418222 0.036337
vt 0.375000 0.750000
vt 0.375000 1.000000
vt 0.375000 0.000000
vt 0.373891 0.250000
vt 0.125000 0.000000
vt 0.418612 1.000000
vt 0.375000 1.000000
vn 0.000000 0.000000 1.000000
vn -0.000000 0.000000 1.000000
vn -0.000000 0.000000 1.000000
vn -0.864375 0.502848 0.000000
vn -0.709212 0.704995 0.000000
vn -0.709212 0.704995 0.000000
vn -0.864375 0.502848 0.000000
vn 0.000000 0.000000 -1.000000
vn -0.000000 0.000000 -1.000000
vn -0.000000 0.000000 -1.000000
vn 0.000000 -1.000000 -0.000000
vn 0.000000 -1.000000 -0.000000
vn 0.000000 -1.000000 -0.000000
vn 0.000000 -1.000000 -0.000000
vn 0.768056 0.640383 0.000000
vn 0.768056 0.640383 0.000000
vn 0.613212 0.789918 0.000000
vn 0.613212 0.789918 0.000000
vn 0.176493 -0.984302 0.000000
vn 0.176493 -0.984302 0.000000
vn 0.159810 -0.987148 0.000000
vn 0.159810 -0.987148 0.000000
vn 0.000000 0.000000 -1.000000
vn 0.000000 0.000000 -1.000000
vn 0.000000 0.000000 -1.000000
vn 0.000000 0.000000 -1.000000
vn -0.274795 0.961503 0.000000
vn -0.274795 0.961503 0.000000
vn 0.015016 0.999887 0.000000
vn 0.015016 0.999887 0.000000
vn 0.000000 0.000000 1.000000
vn 0.000000 0.000000 1.000000
vn 0.000000 0.000000 1.000000
vn 0.000000 0.000000 1.000000
vn 0.000000 0.000000 1.000000
vn 0.000000 0.000000 1.000000
vn 0.864375 0.502848 0.000000
vn 0.864375 0.502848 0.000000
vn 0.709212 0.704995 0.000000
vn 0.709212 0.704995 0.000000
vn 0.000000 0.000000 -1.000000
vn 0.000000 0.000000 -1.000000
vn 0.000000 -1.000000 0.000000
vn 0.000000 -1.000000 0.000000
vn -0.768056 0.640383 0.000000
vn -0.613212 0.789918 0.000000
vn -0.613212 0.789918 0.000000
vn -0.768056 0.640383 0.000000
vn -0.176493 -0.984302 0.000000
vn -0.159810 -0.987148 0.000000
vn -0.159810 -0.987148 0.000000
vn -0.176493 -0.984302 0.000000
vn -0.000000 0.000000 -1.000000
vn -0.000000 0.000000 -1.000000
vn -0.000000 0.000000 -1.000000
vn -0.000000 0.000000 -1.000000
vn 0.274795 0.961503 0.000000
vn -0.015016 0.999887 0.000000
vn -0.015016 0.999887 0.000000
vn 0.274795 0.961503 0.000000
vn -0.000000 0.000000 1.000000
vn -0.000000 0.000000 1.000000
vn -0.000000 0.000000 1.000000
vn -0.000000 0.000000 1.000000
vn -0.000000 0.000000 -1.000000
vn 0.000000 0.000000 -1.000000
vn 0.120797 -0.992677 0.000000
vn 0.120797 -0.992677 0.000000
vn -0.000000 0.000000 1.000000
vn -0.000000 0.000000 1.000000
vn 0.097952 0.995191 0.000000
vn 0.097952 0.995191 0.000000
vn -0.097952 0.995191 0.000000
vn -0.097952 0.995191 0.000000
vn 0.000000 0.000000 1.000000
vn 0.000000 0.000000 1.000000
vn -0.120797 -0.992677 0.000000
vn -0.120797 -0.992677 0.000000
vn 0.000000 0.000000 -1.000000
vn 0.000000 0.000000 -1.000000
vn 0.000000 0.000000 -1.000000
vn 0.000000 0.000000 -1.000000
vn 0.000000 0.000000 -1.000000
vn 0.000000 0.000000 -1.000000
vn 0.000000 0.000000 -1.000000
vn 0.000000 0.000000 -1.000000
vn 0.000000 0.000000 -1.000000
vn 0.000000 0.000000 -1.000000
vn -0.882825 0.469702 0.000000
vn -0.882825 0.469702 0.000000
vn 0.000000 0.000000 1.000000
vn 0.000000 0.000000 1.000000
vn -0.000000 0.000000 1.000000
vn -0.000000 0.000000 1.000000
vn 0.000000 0.000000 1.000000
vn 0.000000 0.000000 1.000000
vn 0.000000 0.000000 1.000000
vn 0.000000 0.000000 1.000000
vn -0.000000 0.000000 1.000000
vn 0.882825 0.469702 0.000000
vn 0.882825 0.469702 0.000000
vn -0.000000 0.000000 -1.000000
vn -0.000000 0.000000 -1.000000
vn 0.000000 0.000000 -1.000000
vn -0.000000 0.000000 -1.000000
vn 0.145569 -0.989348 0.000000
vn 0.145569 -0.989348 0.000000
vn -0.000000 0.000000 1.000000
vn -0.000000 0.000000 1.000000
vn -0.000000 0.000000 1.000000
vn 0.002310 0.999997 0.000000
vn 0.002310 0.999997 0.000000
vn -0.002310 0.999997 0.000000
vn -0.002310 0.999997 0.000000
vn 0.000000 0.000000 1.000000
vn 0.000000 0.000000 1.000000
vn 0.000000 0.000000 1.000000
vn -0.145569 -0.989348 0.000000
vn -0.145569 -0.989348 0.000000
vn 0.000000 0.000000 -1.000000
vn 0.000000 0.000000 -1.000000
vn 0.000000 0.000000 -1.000000
vn 0.000000 0.707109 0.707105
vn 0.000000 0.707109 0.707105
vn 0.086114 0.697267 0.711620
vn 0.086115 0.697267 0.711620
vn -0.086115 0.697267 0.711620
vn -0.086114 0.697267 0.711620
vn -0.104510 0.694470 0.711891
vn -0.104510 0.694470 0.711891
vn 0.000000 0.707109 -0.707105
vn 0.000000 0.707109 -0.707105
vn 0.086115 0.697267 -0.711620
vn 0.086114 0.697267 -0.711620
vn -0.086114 0.697267 -0.711620
vn -0.086115 0.697267 -0.711620
vn -0.104510 0.694470 -0.711891
vn -0.104510 0.694470 -0.711891
vn 0.668995 0.743267 0.000000
vn 0.668995 0.743267 0.000000
vn 0.668995 0.743267 0.000000
vn 0.668995 0.743267 0.000000
vn 0.107234 -0.707451 0.698580
vn 0.107234 -0.707451 0.698580
vn 0.107234 -0.707451 0.698580
vn 0.107234 -0.707451 0.698580
vn 0.747807 -0.663917 0.000000
vn 0.747807 -0.663917 0.000000
vn 0.747807 -0.663917 0.000000
vn 0.747807 -0.663917 0.000000
vn 0.107234 -0.707451 -0.698580
vn 0.107234 -0.707451 -0.698580
vn 0.107234 -0.707451 -0.698580
vn 0.107234 -0.707451 -0.698580
vn -0.107234 -0.707451 -0.698580
vn -0.107234 -0.707451 -0.698580
vn -0.107234 -0.707451 -0.698580
vn -0.107234 -0.707451 -0.698580
vn -0.747807 -0.663917 0.000000
vn -0.747807 -0.663917 0.000000
vn -0.747807 -0.663917 0.000000
vn -0.747807 -0.663917 0.000000
vn -0.107234 -0.707451 0.698580
vn -0.107234 -0.707451 0.698580
vn -0.107234 -0.707451 0.698580
vn -0.107234 -0.707451 0.698580
vn 0.104510 0.694470 0.711891
vn 0.104510 0.694470 0.711891
vn 0.104510 0.694470 -0.711891
vn 0.104510 0.694470 -0.711891
vn -0.668995 0.743267 0.000000
vn -0.668995 0.743267 0.000000
vn -0.668995 0.743267 0.000000
vn -0.668995 0.743267 0.000000
vn 0.707108 0.000000 -0.707106
vn 0.707108 0.000000 -0.707106
vn 0.707108 0.000000 -0.707106
vn 0.707108 0.000000 -0.707106
vn 0.707113 0.000000 0.707100
vn 0.707113 0.000000 0.707100
vn 0.707113 0.000000 0.707100
vn 0.707113 0.000000 0.707100
vn -0.707112 0.000000 0.707102
vn -0.707112 0.000000 0.707102
vn -0.707112 0.000000 0.707102
vn -0.707112 0.000000 0.707102
vn -0.707108 0.000000 -0.707106
vn -0.707108 0.000000 -0.707106
vn -0.707108 0.000000 -0.707106
vn -0.707108 0.000000 -0.707106
vn 0.707107 -0.707107 0.000000
vn 0.707107 -0.707107 0.000000
vn 0.707107 -0.707107 0.000000
vn 0.707107 -0.707107 0.000000
vn 0.000000 -0.707109 -0.707105
vn 0.000000 -0.707109 -0.707105
vn 0.000000 -0.707109 -0.707105
vn 0.000000 -0.707109 -0.707105
vn 0.000000 -0.707109 -0.707105
vn 0.000000 -0.707109 -0.707105
vn -0.707107 -0.707107 0.000000
vn -0.707107 -0.707107 0.000000
vn -0.707107 -0.707107 0.000000
vn -0.707107 -0.707107 0.000000
vn 0.000000 0.000000 1.000000
vn -0.000000 0.000000 1.000000
vn -0.000000 0.000000 1.000000
vn 0.000000 0.000000 1.000000
vn 0.000000 1.000000 0.000000
vn -0.122580 0.992459 0.000000
vn -0.122580 0.992459 0.000000
vn 0.000000 1.000000 0.000000
vn 0.000000 0.000000 -1.000000
vn -0.000000 0.000000 -1.000000
vn -0.000000 0.000000 -1.000000
vn -0.000000 0.000000 -1.000000
vn 0.000000 -1.000000 0.000000
vn 0.000000 -1.000000 0.000000
vn 0.000000 -1.000000 0.000000
vn 0.000000 -1.000000 0.000000
vn 1.000000 0.000000 0.000000
vn 1.000000 0.000000 0.000000
vn 1.000000 0.000000 0.000000
vn 1.000000 0.000000 0.000000
vn -1.000000 0.000000 0.000000
vn -1.000000 0.000000 0.000000
vn -1.000000 0.000000 0.000000
vn -1.000000 0.000000 0.000000
vn 0.000000 -1.000000 0.000000
vn 0.000000 -1.000000 0.000000
vn -0.000000 0.000000 1.000000
vn -0.000000 0.000000 1.000000
vn 0.122580 0.992459 0.000000
vn 0.122580 0.992459 0.000000
vn 0.000000 0.000000 -1.000000
vn 0.000000 0.000000 -1.000000
vn -0.000000 0.000000 -1.000000
vn -0.000000 0.000000 -1.000000
vn 0.149997 -0.988687 0.000000
vn 0.149997 -0.988687 0.000000
vn 0.149997 -0.988687 0.000000
vn 0.149997 -0.988687 0.000000
vn -0.000000 0.000000 1.000000
vn -0.000000 0.000000 1.000000
vn -0.148956 0.988844 0.000000
vn -0.148956 0.988844 0.000000
vn 0.148956 0.988844 0.000000
vn 0.148956 0.988844 0.000000
vn 0.000000 0.000000 1.000000
vn 0.000000 0.000000 1.000000
vn -0.149997 -0.988687 0.000000
vn -0.149997 -0.988687 0.000000
vn -0.149997 -0.988687 0.000000
vn -0.149997 -0.988687 0.000000
vn 0.000000 0.000000 -1.000000
vn 0.000000 0.000000 -1.000000
vn 0.000000 0.000000 -1.000000
vn -0.000000 0.000000 -1.000000
vn 1.000000 0.000000 0.000000
vn 1.000000 0.000000 0.000000
vn 1.000000 0.000000 0.000000
vn 1.000000 0.000000 0.000000
vn 0.000000 0.000000 1.000000
vn 0.000000 0.000000 1.000000
vn 0.000000 0.000000 1.000000
vn -1.000000 0.000000 0.000000
vn -1.000000 0.000000 0.000000
vn -1.000000 0.000000 0.000000
vn -1.000000 0.000000 0.000000
vn -0.000000 0.000000 -1.000000
vn 0.577345 -0.577355 -0.577351
vn 0.577345 -0.577355 -0.577351
vn 0.577345 -0.577355 -0.577351
vn -0.577345 -0.577355 -0.577351
vn -0.577345 -0.577355 -0.577351
vn -0.577345 -0.577355 -0.577351
s 1
g pCube4
usemtl initialShadingGroup
f 3/3/1 48/64/2 32/45/3
s 2
f 3/3/4 32/45/5 29/41/6 5/5/7
s 3
f 5/5/8 29/41/9 39/54/10
s 4
f 7/7/11 30/42/12 31/44/13 1/9/14
s 5
f 51/67/15 52/68/16 11/15/17 12/16/18
s 4
f 2/2/19 8/11/20 22/34/21 23/35/22
s 3
f 38/53/23 6/12/24 21/33/25 37/51/26
s 2
f 6/12/27 4/4/28 24/36/29 21/33/30
s 1
f 4/4/31 49/65/32 50/66/33 24/36/34
f 47/63/35 3/20/1 34/47/36
s 7
f 3/20/37 5/22/38 33/46/39 34/47/40
s 3
f 5/22/8 40/55/41 33/46/42
s 4
f 7/24/11 1/26/14 35/48/43 36/50/44
s 9
f 44/60/45 20/30/46 19/29/47 43/59/48
s 4
f 13/18/49 27/39/50 28/40/51 16/31/52
s 3
f 41/56/53 42/58/54 25/37/55 15/32/56
s 7
f 15/32/57 25/37/58 26/38/59 14/19/60
s 1
f 14/19/61 26/38/62 45/61/63 46/62/64
s 3
f 54/70/65 37/51/26 21/33/25 53/69/66
s 4
f 23/35/22 22/34/21 55/71/67 56/72/68
s 1
f 24/36/34 50/66/33 57/73/69 58/74/70
s 2
f 21/33/30 24/36/29 58/74/71 53/69/72
s 7
f 25/37/58 59/75/73 60/76/74 26/38/59
s 1
f 45/61/63 26/38/62 60/76/75 61/77/76
s 4
f 28/40/51 27/39/50 62/78/77 63/79/78
s 3
f 25/37/55 42/58/54 64/80/79 59/75/80
f 29/41/9 6/6/24 38/52/23 39/54/10
s 4
f 31/44/13 30/42/12 8/8/20 2/10/19
s 1
f 32/45/3 48/64/2 49/65/32 4/4/31
s 2
f 29/41/6 32/45/5 4/4/28 6/6/27
s 7
f 34/47/40 33/46/39 15/21/57 14/19/60
s 1
f 47/63/35 34/47/36 14/19/61 46/62/64
s 4
f 36/50/44 35/48/43 13/25/49 16/23/52
s 3
f 33/46/42 40/55/41 41/57/53 15/21/56
f 8/11/81 38/53/23 37/51/26 22/34/82
f 39/54/10 38/52/23 8/8/81 30/42/83
f 5/5/8 39/54/10 30/42/83 7/7/84
f 5/22/8 7/24/84 36/50/85 40/55/41
f 41/57/53 40/55/41 36/50/85 16/23/86
f 16/31/86 28/40/87 42/58/54 41/56/53
f 64/80/79 42/58/54 28/40/87 63/79/88
s 9
f 18/27/89 44/60/45 43/59/48 17/28/90
s 1
f 27/39/91 45/61/63 61/77/76 62/78/92
f 46/62/64 45/61/63 27/39/91 13/18/93
f 35/49/94 47/63/35 46/62/64 13/18/93
f 1/17/95 3/20/1 47/63/35 35/49/94
f 1/1/95 31/43/96 48/64/2 3/3/1
f 49/65/32 48/64/2 31/43/96 2/2/97
f 50/66/33 49/65/32 2/2/97 23/35/98
f 57/73/69 50/66/33 23/35/98 56/72/99
s 5
f 10/13/100 9/14/101 52/68/16 51/67/15
s 3
f 22/34/82 37/51/26 54/70/65 55/71/102
f 52/68/103 54/70/65 53/69/66 11/15/104
f 55/71/102 54/70/65 52/68/103 9/14/105
s 4
f 56/72/68 55/71/67 9/14/106 10/13/107
s 1
f 51/67/108 57/73/69 56/72/99 10/13/109
f 58/74/70 57/73/69 51/67/108 12/16/110
s 2
f 53/69/72 58/74/71 12/16/111 11/15/112
s 7
f 59/75/73 19/29/113 20/30/114 60/76/74
s 1
f 61/77/76 60/76/75 20/30/115 44/60/116
f 62/78/92 61/77/76 44/60/116 18/27/117
s 4
f 63/79/78 62/78/77 18/27/118 17/28/119
s 3
f 43/59/120 64/80/79 63/79/88 17/28/121
f 59/75/80 64/80/79 43/59/120 19/29/122
s 14
f 68/81/123 69/82/124 88/83/125 89/84/126
f 69/82/124 68/81/123 70/85/127 71/86/128
f 71/86/128 70/85/127 76/87/129 77/88/130
s 15
f 72/89/131 73/90/132 91/91/133 90/92/134
f 73/93/132 72/94/131 75/95/135 74/96/136
f 74/96/136 75/95/135 78/97/137 79/98/138
s off
f 77/99/139 76/87/140 79/100/141 78/101/142
f 80/102/143 81/103/144 99/104/145 98/105/146
f 81/106/147 80/107/148 83/108/149 82/109/150
f 82/110/151 83/111/152 97/112/153 96/113/154
f 84/114/155 85/115/156 103/116/157 102/117/158
f 85/115/159 84/114/160 87/118/161 86/119/162
f 86/119/163 87/118/164 101/120/165 100/121/166
s 14
f 89/84/126 88/83/125 92/122/167 93/123/168
s 15
f 90/92/134 91/91/133 94/124/169 95/125/170
s off
f 93/123/171 92/122/172 95/125/173 94/124/174
f 96/113/175 97/112/176 106/126/177 105/127/178
f 98/105/179 99/128/180 110/129/181 109/130/182
f 100/121/183 101/120/184 112/131/185 111/132/186
f 102/117/187 103/116/188 115/133/189 114/134/190
f 104/135/191 106/126/192 109/130/193 110/129/194
s 16
f 105/127/195 104/135/196 108/136/197 107/137/198
f 107/138/198 108/139/197 113/140/199 115/133/200
s off
f 111/132/201 112/131/202 114/134/203 113/140/204
s 17
f 65/141/205 99/142/206 70/85/207 68/81/208
s 18
f 69/82/209 71/86/210 75/95/211 72/94/212
s 19
f 73/93/213 74/96/214 96/113/215 66/143/216
s 20
f 108/136/217 104/135/218 110/129/219 67/144/220
s off
f 81/106/221 82/109/222 79/100/223 76/87/224
f 85/115/225 86/119/226 93/123/227 94/124/228
s 20
f 108/139/217 67/145/220 111/132/229 113/140/230
s 17
f 65/141/205 68/81/208 89/84/231 100/121/232
s 18
f 69/146/209 72/89/212 90/92/233 88/83/234
s 19
f 73/90/213 66/147/216 103/116/235 91/91/236
f 74/96/214 79/98/237 82/110/238 96/113/215
s off
f 98/105/239 97/112/240 83/111/241 80/102/242
s 17
f 70/85/207 99/142/206 81/106/243 76/87/244
s 18
f 75/95/211 71/86/210 77/88/245 78/97/246
f 88/83/234 90/92/233 95/125/247 92/122/248
s 17
f 100/121/232 89/84/231 93/123/249 86/119/250
s off
f 102/117/251 101/120/252 87/118/253 84/114/254
s 19
f 91/91/236 103/116/235 85/115/255 94/124/256
f 66/143/216 96/113/215 105/127/257 107/137/258
s off
f 97/112/259 98/105/260 109/130/261 106/126/262
s 17
f 99/148/206 65/149/205 67/144/263 110/129/264
f 65/141/205 100/121/232 111/132/265 67/145/263
s off
f 101/120/266 102/117/267 114/134/268 112/131/269
s 19
f 103/116/235 66/147/216 107/138/258 115/133/270
s off
f 104/135/271 105/127/272 106/126/273
f 113/140/274 114/134/275 115/133/276
